<svg width="60" height="60" viewBox="0 0 60 60" fill="none" xmlns="http://www.w3.org/2000/svg">
<g clip-path="url(#clip0_4766_13392)">
<path d="M10.625 4.83609e-06H49.375C50.7707 -0.00134432 52.1529 0.279605 53.4426 0.826775C54.7322 1.37394 55.9041 2.17659 56.8909 3.18878C57.8778 4.20097 58.6604 5.40283 59.1939 6.72558C59.7274 8.04832 60.0013 9.46599 60 10.8974V49.1026C60.0013 50.534 59.7274 51.9517 59.1939 53.2744C58.6604 54.5972 57.8778 55.799 56.8909 56.8112C55.9041 57.8234 54.7322 58.6261 53.4426 59.1732C52.1529 59.7204 50.7707 60.0014 49.375 60H10.625C9.22934 60.0014 7.84712 59.7204 6.55744 59.1732C5.26776 58.6261 4.09595 57.8234 3.10906 56.8112C2.12218 55.799 1.3396 54.5972 0.806106 53.2744C0.272615 51.9517 -0.00131071 50.534 4.71519e-06 49.1026V10.8974C-0.00131071 9.46599 0.272615 8.04832 0.806106 6.72558C1.3396 5.40283 2.12218 4.20097 3.10906 3.18878C4.09595 2.17659 5.26776 1.37394 6.55744 0.826775C7.84712 0.279605 9.22934 -0.00134432 10.625 4.83609e-06Z" fill="#060607"/>
<path d="M23.75 49.2307C27.2018 49.2307 30 46.3607 30 42.8204V36.4102H23.75C20.2982 36.4102 17.5 39.2801 17.5 42.8204C17.5 46.3607 20.2982 49.2307 23.75 49.2307Z" fill="#0ACF83"/>
<path d="M17.5 30.0001C17.5 26.4598 20.2982 23.5898 23.75 23.5898H30V36.4104H23.75C20.2982 36.4104 17.5 33.5404 17.5 30.0001Z" fill="#A259FF"/>
<path d="M17.5 17.1798C17.5 13.6395 20.2982 10.7695 23.75 10.7695H30V23.59H23.75C20.2982 23.59 17.5 20.7201 17.5 17.1798Z" fill="#F24E1E"/>
<path d="M30 10.7695H36.25C39.7018 10.7695 42.5 13.6395 42.5 17.1798C42.5 20.7201 39.7018 23.59 36.25 23.59H30V10.7695Z" fill="#FF7262"/>
<path d="M42.5 30.0001C42.5 33.5404 39.7018 36.4104 36.25 36.4104C32.7982 36.4104 30 33.5404 30 30.0001C30 26.4598 32.7982 23.5898 36.25 23.5898C39.7018 23.5898 42.5 26.4598 42.5 30.0001Z" fill="#1ABCFE"/>
</g>
<defs>
<clipPath id="clip0_4766_13392">
<rect width="60" height="60" fill="white"/>
</clipPath>
</defs>
</svg>
