<svg width="180" height="35" viewBox="0 0 180 35" fill="none" xmlns="http://www.w3.org/2000/svg">
<path d="M23.4637 7.81571H17.2839C17.0683 7.81571 16.9575 7.55625 17.109 7.40131L22.6335 1.72396C23.0769 1.26898 22.7517 0.505359 22.1161 0.507818L12.6968 0.533641C12.14 0.534871 11.6079 0.7599 11.2199 1.15831L0.707985 11.9437C0.194337 12.4712 0.110579 13.2803 0.505977 13.9013L7.45069 24.8183C7.79681 25.363 8.39792 25.6926 9.0446 25.6926H15.2244C15.4399 25.6926 15.5508 25.952 15.3993 26.107L9.87481 31.7843C9.43137 32.2393 9.75656 33.0029 10.3922 33.0004L19.8115 32.9746C20.3682 32.9734 20.9004 32.7484 21.2884 32.35L31.8003 21.5646C32.3139 21.037 32.3977 20.2279 32.0023 19.6069L25.0576 8.69C24.7115 8.14526 24.1104 7.81571 23.4637 7.81571ZM16.2541 8.81419V15.4335C16.2541 16.1627 15.6617 16.7541 14.9312 16.7541H8.58515C8.36959 16.7541 8.25873 16.4947 8.41024 16.3397L15.8809 8.66294C16.0176 8.52399 16.2541 8.61991 16.2541 8.81419ZM16.2554 24.6941V18.0748C16.2554 17.3456 16.8479 16.7541 17.5783 16.7541H23.9231C24.1387 16.7541 24.2496 17.0136 24.098 17.1685L16.6274 24.8453C16.4919 24.9855 16.2554 24.8896 16.2554 24.6941Z" fill="white"/>
<path d="M52.904 16.4651V16.4134C54.3279 15.7027 55.1421 14.3611 55.1421 12.6261C55.1421 10.0216 53.43 8.15625 50.167 8.15625H41.9228V25.3506H50.8506C54.1937 25.3506 55.9342 23.3783 55.9342 20.6964C55.9342 18.649 54.7997 17.0713 52.904 16.4651ZM45.2941 11.2857H49.7174C51.2719 11.2857 51.7991 12.101 51.7991 13.2052C51.7991 14.2849 51.1414 15.1248 49.7458 15.1248H45.2941V11.2857ZM50.2717 22.2507H45.2941V18.1227H50.2976C51.6932 18.1227 52.4815 19.0412 52.4815 20.1983C52.4827 21.3296 51.8496 22.2507 50.2717 22.2507Z" fill="white"/>
<path d="M68.4423 8.1582L64.125 15.0984L59.8593 8.1582H55.8807L62.4645 18.0951V25.3526H65.8359V18.0176L72.3409 8.1582H68.4423Z" fill="white"/>
<path d="M102.203 8.1582V11.2852H81.9014V25.3526H78.5288V11.2852H73.3948V8.1582H102.203Z" fill="white"/>
<path d="M102.202 22.2502V25.3526H89.5103V15.123H102.202V18.1222H92.8816V22.2502H102.202Z" fill="white"/>
<path d="M104.127 8.1582V11.2852H109.264V25.3526H112.633V11.2852H117.771V8.1582H104.127Z" fill="white"/>
<path d="M127.538 7.81641C122.166 7.81641 118.374 11.6001 118.374 16.7548C118.374 21.9071 122.167 25.6933 127.538 25.6933C132.912 25.6933 136.705 21.9059 136.705 16.7548C136.705 11.6013 132.912 7.81641 127.538 7.81641ZM127.538 22.592C124.115 22.592 121.797 20.1216 121.797 16.7548C121.797 13.388 124.115 10.9434 127.538 10.9434C130.963 10.9434 133.279 13.388 133.279 16.7548C133.279 20.1216 130.963 22.592 127.538 22.592Z" fill="white"/>
<path d="M157.404 8.1582V19.2264C157.404 21.5923 156.139 22.5674 154.48 22.5674C152.822 22.5674 151.558 21.5665 151.558 19.2264V8.1582H148.187V19.2264C148.187 21.5665 146.922 22.5674 145.265 22.5674C143.605 22.5674 142.341 21.5923 142.341 19.2264V8.1582H138.972V19.2264C138.972 23.6446 141.579 25.6944 144.976 25.6944C147.163 25.6944 148.874 24.7734 149.875 23.0642C150.877 24.7734 152.588 25.6944 154.773 25.6944C158.171 25.6944 160.779 23.6446 160.779 19.2264V8.1582H157.404Z" fill="white"/>
<path d="M170.835 7.81641C166.121 7.81641 163.513 10.577 163.513 14.9927V25.3526H166.885V14.9927C166.885 12.4424 168.2 10.9447 170.835 10.9447C173.47 10.9447 174.785 12.4424 174.785 14.9927V25.3526H178.156V14.9927C178.156 10.577 175.548 7.81641 170.835 7.81641Z" fill="white"/>
</svg>
