<svg width="66" height="66" viewBox="0 0 66 66" fill="none" xmlns="http://www.w3.org/2000/svg">
<rect width="66" height="66" rx="13" fill="#060607"/>
<g clip-path="url(#clip0_4774_671)">
<path d="M17.145 14.2803L40.7588 14.2803L49.841 23.3625L49.841 52.4255L17.145 52.4255L17.145 14.2803Z" fill="#8C53F6"/>
<path d="M49.8415 23.3625L40.7593 14.2803L40.7593 21.546C40.7593 22.5492 41.5726 23.3625 42.5758 23.3625L49.8415 23.3625Z" fill="#D4BBFA"/>
<path d="M26.8571 28.8966L27.5464 28.6668L27.5464 28.6668L26.8571 28.8966ZM27.6978 31.4185L27.0085 31.6482L27.0085 31.6482L27.6978 31.4185ZM28.5652 32.822L29.0789 32.3082L29.0789 32.3082L28.5652 32.822ZM36.9423 41.1991L36.4285 41.7129L36.4285 41.7129L36.9423 41.1991ZM41.4306 36.7108L41.9443 36.1971L41.9443 36.1971L41.4306 36.7108ZM33.0534 28.3337L32.5397 28.8475L32.5397 28.8475L33.0534 28.3337ZM31.6499 27.4663L31.8797 26.777L31.8797 26.777L31.6499 27.4663ZM29.128 26.6257L29.3578 25.9364L29.3578 25.9364L29.128 26.6257ZM32.5933 27.9043L32.1558 28.4843L32.1558 28.4843L32.5933 27.9043ZM32.2398 27.6858L31.9167 28.3366L31.9167 28.3366L32.2398 27.6858ZM42.5118 39.9514L41.8608 39.6288L41.8608 39.6288L42.5118 39.9514ZM42.5118 37.9585L41.8608 38.2812L41.8608 38.2812L42.5118 37.9585ZM38.19 42.2803L38.5126 41.6293L38.5126 41.6293L38.19 42.2803ZM40.1829 42.2803L39.8603 41.6293L39.8603 41.6293L40.1829 42.2803ZM27.9172 32.0083L28.568 31.6852L28.568 31.6852L27.9172 32.0083ZM28.1357 32.3619L27.5557 32.7994L27.5557 32.7994L28.1357 32.3619ZM26.4389 26.8875L25.7546 26.6434L25.7546 26.6434L26.4389 26.8875ZM27.1189 26.2075L26.8749 25.5231L26.8749 25.5231L27.1189 26.2075ZM30.3893 34.646C30.1055 34.9298 29.6455 34.9298 29.3618 34.646C29.078 34.3623 29.078 33.9023 29.3618 33.6185L30.3893 34.646ZM33.85 29.1303C34.1338 28.8465 34.5938 28.8465 34.8775 29.1303C35.1613 29.414 35.1613 29.874 34.8775 30.1578L33.85 29.1303ZM27.5464 28.6668L28.3871 31.1887L27.0085 31.6482L26.1678 29.1263L27.5464 28.6668ZM29.0789 32.3082L37.4561 40.6853L36.4285 41.7129L28.0514 33.3357L29.0789 32.3082ZM40.9168 37.2246L32.5397 28.8475L33.5672 27.8199L41.9443 36.1971L40.9168 37.2246ZM31.4202 28.1556L28.8983 27.315L29.3578 25.9364L31.8797 26.777L31.4202 28.1556ZM32.5397 28.8475C32.3024 28.6102 32.2309 28.541 32.1558 28.4843L33.0309 27.3242C33.2053 27.4558 33.3574 27.6101 33.5672 27.8199L32.5397 28.8475ZM31.8797 26.777C32.1612 26.8708 32.3672 26.9378 32.5629 27.035L31.9167 28.3366C31.8324 28.2947 31.7385 28.2617 31.4202 28.1556L31.8797 26.777ZM32.1558 28.4843C32.0808 28.4278 32.0008 28.3783 31.9167 28.3366L32.5629 27.035C32.7275 27.1167 32.8842 27.2135 33.0309 27.3242L32.1558 28.4843ZM40.9168 40.6853C41.5701 40.032 41.7635 39.825 41.8608 39.6288L43.1628 40.274C42.933 40.7378 42.5147 41.1425 41.9443 41.7129L40.9168 40.6853ZM41.9443 36.1971C42.5147 36.7674 42.933 37.1722 43.1628 37.6359L41.8608 38.2812C41.7635 38.0849 41.5701 37.8779 40.9168 37.2246L41.9443 36.1971ZM41.8608 39.6288C42.0712 39.2042 42.0712 38.7057 41.8608 38.2812L43.1628 37.6359C43.5747 38.4671 43.5747 39.4429 43.1628 40.274L41.8608 39.6288ZM37.4561 40.6853C38.1094 41.3386 38.3164 41.5321 38.5126 41.6293L37.8674 42.9314C37.4036 42.7015 36.9989 42.2832 36.4285 41.7129L37.4561 40.6853ZM41.9443 41.7129C41.374 42.2832 40.9692 42.7015 40.5055 42.9314L39.8603 41.6293C40.0565 41.5321 40.2635 41.3386 40.9168 40.6853L41.9443 41.7129ZM38.5126 41.6293C38.9372 41.8397 39.4357 41.8397 39.8603 41.6293L40.5055 42.9314C39.6743 43.3432 38.6985 43.3432 37.8674 42.9314L38.5126 41.6293ZM28.3871 31.1887C28.4932 31.507 28.5262 31.6009 28.568 31.6852L27.2665 32.3314C27.1693 32.1357 27.1023 31.9297 27.0085 31.6482L28.3871 31.1887ZM28.0514 33.3357C27.8416 33.1259 27.6873 32.9739 27.5557 32.7994L28.7158 31.9243C28.7725 31.9994 28.8417 32.0709 29.0789 32.3082L28.0514 33.3357ZM28.568 31.6852C28.6098 31.7693 28.6592 31.8493 28.7158 31.9243L27.5557 32.7994C27.445 32.6527 27.3482 32.4961 27.2665 32.3314L28.568 31.6852ZM26.1678 29.1263C25.9897 28.5919 25.8394 28.1434 25.7549 27.7838C25.673 27.4349 25.6159 27.0324 25.7546 26.6434L27.1233 27.1315C27.132 27.1071 27.1013 27.1609 27.1696 27.4514C27.2353 27.7311 27.3591 28.1049 27.5464 28.6668L26.1678 29.1263ZM28.8983 27.315C28.3363 27.1277 27.9625 27.0038 27.6828 26.9381C27.3924 26.8698 27.3386 26.9006 27.363 26.8918L26.8749 25.5231C27.2639 25.3844 27.6664 25.4415 28.0153 25.5235C28.3749 25.608 28.8234 25.7582 29.3578 25.9364L28.8983 27.315ZM25.7546 26.6434C25.941 26.1208 26.3523 25.7095 26.8749 25.5231L27.363 26.8918C27.2512 26.9317 27.1632 27.0197 27.1233 27.1315L25.7546 26.6434ZM29.3618 33.6185L33.85 29.1303L34.8775 30.1578L30.3893 34.646L29.3618 33.6185Z" fill="#E3D1FF"/>
</g>
<defs>
<clipPath id="clip0_4774_671">
<rect x="17.1449" y="14.2803" width="32.6959" height="38.1453" rx="1.81644" fill="white"/>
</clipPath>
</defs>
</svg>
