<svg width="60" height="60" viewBox="0 0 60 60" fill="none" xmlns="http://www.w3.org/2000/svg">
<g clip-path="url(#clip0_4766_13523)">
<path d="M10.6251 0.00293452H49.3751C50.7708 0.00158537 52.153 0.282535 53.4427 0.829705C54.7324 1.37687 55.9042 2.17952 56.8911 3.19171C57.878 4.2039 58.6605 5.40576 59.194 6.72851C59.7275 8.05125 60.0014 9.46892 60.0001 10.9004V49.1055C60.0014 50.5369 59.7275 51.9546 59.194 53.2774C58.6605 54.6001 57.878 55.802 56.8911 56.8142C55.9042 57.8263 54.7324 58.629 53.4427 59.1762C52.153 59.7233 50.7708 60.0043 49.3751 60.0029H10.6251C9.22946 60.0043 7.84724 59.7233 6.55756 59.1762C5.26788 58.629 4.09607 57.8263 3.10918 56.8142C2.1223 55.802 1.33972 54.6001 0.806228 53.2774C0.272737 51.9546 -0.00118864 50.5369 0.000126786 49.1055V10.9004C-0.00118864 9.46892 0.272737 8.05125 0.806228 6.72851C1.33972 5.40576 2.1223 4.2039 3.10918 3.19171C4.09607 2.17952 5.26788 1.37687 6.55756 0.829705C7.84724 0.282535 9.22946 0.00158537 10.6251 0.00293452Z" fill="#330000"/>
<path d="M29.0739 36.0014H19.7739L17.8739 42.027C17.8526 42.1368 17.7921 42.2346 17.7043 42.301C17.6164 42.3674 17.5074 42.3977 17.3989 42.386H12.6989C12.4239 42.386 12.3489 42.2321 12.4239 41.9245L20.4739 18.1552C20.5489 17.8988 20.6239 17.6168 20.7239 17.3091C20.8245 16.7595 20.8747 16.2015 20.8739 15.6424C20.8664 15.5782 20.8828 15.5134 20.9199 15.4611C20.957 15.4088 21.012 15.3728 21.0739 15.3604H27.5489C27.7489 15.3604 27.8489 15.4373 27.8739 15.5655L36.9989 41.9757C37.0739 42.2578 36.9989 42.386 36.7489 42.386H31.5239C31.4355 42.3947 31.347 42.3712 31.2738 42.3197C31.2007 42.2681 31.1476 42.1917 31.1239 42.1039L29.0739 36.0014ZM21.2239 30.7962H27.5739C27.4239 30.2578 27.2239 29.6168 26.9989 28.9501C26.7739 28.2834 26.5489 27.5142 26.3239 26.745C26.0989 25.9757 25.8489 25.1809 25.5989 24.386C25.3489 23.5911 25.1239 22.8475 24.9239 22.1039C24.7239 21.3604 24.5489 20.7193 24.3739 20.1039H24.3239C24.0992 21.2215 23.8154 22.3257 23.4739 23.4116C23.0989 24.6424 22.7239 25.9245 22.3239 27.2065C21.9739 28.5142 21.5989 29.7193 21.2239 30.7962Z" fill="#FF9A00"/>
<path d="M42.4489 19.7446C42.0386 19.7538 41.6305 19.6792 41.2485 19.5251C40.8666 19.3711 40.5183 19.1406 40.2239 18.8472C39.6512 18.2048 39.3461 17.3582 39.3739 16.4882C39.3592 16.0643 39.4317 15.642 39.5868 15.2488C39.7419 14.8556 39.976 14.5003 40.2739 14.2061C40.8748 13.6236 41.6721 13.302 42.4989 13.3087C43.4739 13.3087 44.2239 13.6164 44.7739 14.2061C45.3278 14.8279 45.6237 15.6464 45.5989 16.4882C45.6142 16.9214 45.5446 17.3534 45.3943 17.7585C45.244 18.1637 45.0161 18.5339 44.7239 18.8472C44.4294 19.1549 44.0739 19.3943 43.6814 19.5491C43.2889 19.7039 42.8687 19.7706 42.4489 19.7446ZM39.6489 42.001V22.2574C39.6489 22.001 39.7489 21.8984 39.9739 21.8984H44.9239C45.1489 21.8984 45.2489 22.0266 45.2489 22.2574V42.001C45.2489 42.2831 45.1489 42.4113 44.9239 42.4113H40.0239C39.9714 42.4157 39.9186 42.4079 39.8694 42.3885C39.8202 42.369 39.7759 42.3385 39.7398 42.299C39.7038 42.2596 39.6769 42.2123 39.6611 42.1607C39.6454 42.1091 39.6412 42.0545 39.6489 42.001Z" fill="#FF9A00"/>
</g>
<defs>
<clipPath id="clip0_4766_13523">
<rect width="60" height="60" fill="white"/>
</clipPath>
</defs>
</svg>
