<svg width="20" height="20" viewBox="0 0 20 20" fill="none" xmlns="http://www.w3.org/2000/svg">
<path d="M10.592 17.0597L9.27528 17.4931C5.96695 18.5597 4.22528 17.6681 3.15028 14.3597L2.08362 11.0681C1.01695 7.75973 1.90028 6.00973 5.20862 4.94307L6.49195 4.51807C6.33362 4.91807 6.20028 5.3764 6.07528 5.89307L5.25862 9.38473C4.34195 13.3097 5.68362 15.4764 9.60862 16.4097L11.0086 16.7431C11.1003 16.7681 11.2003 16.7847 11.292 16.8014C11.0753 16.8931 10.842 16.9764 10.592 17.0597Z" fill="#4154E8"/>
<path d="M12.9167 2.34895C10.1333 1.69062 8.47499 2.23228 7.49999 4.24895C7.24999 4.75728 7.04999 5.37395 6.88332 6.08228L6.06665 9.57395C5.24999 13.0573 6.32499 14.7739 9.79999 15.5989L11.2 15.9323C11.6833 16.0489 12.1333 16.1239 12.55 16.1573C15.15 16.4073 16.5333 15.1906 17.2333 12.1823L18.05 8.69895C18.8667 5.21562 17.8 3.49062 14.3083 2.67395L12.9167 2.34895Z" fill="#4154E8"/>
<path d="M10.5332 7.1084L14.5749 8.1334" stroke="white" stroke-width="1.25" stroke-linecap="round" stroke-linejoin="round"/>
<path d="M9.7168 10.333L12.1335 10.9497" stroke="white" stroke-width="1.25" stroke-linecap="round" stroke-linejoin="round"/>
</svg>
