<svg width="25" height="24" viewBox="0 0 25 24" fill="none" xmlns="http://www.w3.org/2000/svg">
<path fill-rule="evenodd" clip-rule="evenodd" d="M3.8749 10.8879C9.24359 8.62993 12.8236 7.14134 14.6148 6.42212C19.7292 4.36862 20.7919 4.0119 21.4846 4.00013C21.6369 3.99753 21.9776 4.03398 22.1982 4.20682C22.3845 4.35275 22.4358 4.5499 22.4603 4.68826C22.4848 4.82663 22.5154 5.14183 22.4911 5.38811C22.214 8.1992 21.0147 15.021 20.4046 18.1694C20.1465 19.5017 19.6382 19.9484 19.1461 19.9921C18.0766 20.0871 17.2645 19.3098 16.2287 18.6543C14.6078 17.6287 13.6921 16.9902 12.1188 15.9893C10.3005 14.8327 11.4792 14.1969 12.5154 13.158C12.7866 12.8861 17.4987 8.74867 17.5899 8.37335C17.6013 8.32641 17.6119 8.15143 17.5042 8.05904C17.3965 7.96664 17.2376 7.99824 17.1229 8.02337C16.9604 8.05898 14.371 9.71112 9.35486 12.9798C8.61988 13.467 7.95416 13.7044 7.3577 13.6919C6.70015 13.6782 5.43528 13.333 4.49498 13.038C3.34166 12.6761 2.42503 12.4847 2.50485 11.8701C2.54642 11.55 3.0031 11.2226 3.8749 10.8879Z" fill="#060607"/>
</svg>
