<svg width="20" height="20" viewBox="0 0 20 20" fill="none" xmlns="http://www.w3.org/2000/svg">
<path d="M11.0584 18.75C11.8584 18.75 12.3751 18.1833 12.2251 17.4917L11.8834 15.9834H8.13343L7.79177 17.4917C7.64177 18.1417 8.20844 18.75 8.95844 18.75H11.0584Z" stroke="#060607" stroke-width="1.25" stroke-linecap="round" stroke-linejoin="round"/>
<path d="M11.8831 15.9752L13.3248 14.6918C14.1331 13.9751 14.1665 13.4751 13.5248 12.6667L10.9831 9.4418C10.4498 8.7668 9.57481 8.7668 9.04147 9.4418L6.49981 12.6667C5.85814 13.4751 5.85813 14.0001 6.6998 14.6918L8.14147 15.9752" stroke="#060607" stroke-width="1.25" stroke-linecap="round" stroke-linejoin="round"/>
<path d="M10.0088 9.2666V11.375" stroke="#060607" stroke-width="1.25" stroke-linecap="round" stroke-linejoin="round"/>
<path d="M9.59993 4.16699C9.1416 4.16699 8.7666 3.79199 8.7666 3.33366V2.50033C8.7666 2.04199 9.1416 1.66699 9.59993 1.66699H10.4333C10.8916 1.66699 11.2666 2.04199 11.2666 2.50033V3.33366C11.2666 3.79199 10.8916 4.16699 10.4333 4.16699H9.59993Z" stroke="#060607" stroke-width="1.25" stroke-linecap="round" stroke-linejoin="round"/>
<path d="M3.55827 11.8086C4.0166 11.8086 4.3916 11.4336 4.3916 10.9753V10.142C4.3916 9.68364 4.0166 9.30859 3.55827 9.30859H2.72493C2.2666 9.30859 1.8916 9.68364 1.8916 10.142V10.9753C1.8916 11.4336 2.2666 11.8086 2.72493 11.8086H3.55827Z" stroke="#060607" stroke-width="1.25" stroke-linecap="round" stroke-linejoin="round"/>
<path d="M16.4417 11.8086C15.9834 11.8086 15.6084 11.4336 15.6084 10.9753V10.142C15.6084 9.68364 15.9834 9.30859 16.4417 9.30859H17.2751C17.7334 9.30859 18.1084 9.68364 18.1084 10.142V10.9753C18.1084 11.4336 17.7334 11.8086 17.2751 11.8086H16.4417Z" stroke="#060607" stroke-width="1.25" stroke-linecap="round" stroke-linejoin="round"/>
<path d="M8.76667 2.9668C5.59167 3.3418 3.125 6.03345 3.125 9.30845" stroke="#060607" stroke-width="1.25" stroke-linecap="round" stroke-linejoin="round"/>
<path d="M16.8749 9.30845C16.8749 6.04178 14.4249 3.35846 11.2666 2.9668" stroke="#060607" stroke-width="1.25" stroke-linecap="round" stroke-linejoin="round"/>
</svg>
