<svg width="180" height="35" viewBox="0 0 180 35" fill="none" xmlns="http://www.w3.org/2000/svg">
<path d="M23.4638 7.81571H17.284C17.0685 7.81571 16.9576 7.55625 17.1091 7.40131L22.6336 1.72396C23.077 1.26898 22.7518 0.505359 22.1163 0.507818L12.6969 0.533641C12.1402 0.534871 11.608 0.7599 11.22 1.15831L0.708107 11.9437C0.194459 12.4712 0.110701 13.2803 0.506099 13.9013L7.45081 24.8183C7.79694 25.363 8.39804 25.6926 9.04472 25.6926H15.2245C15.4401 25.6926 15.5509 25.952 15.3994 26.107L9.87493 31.7843C9.4315 32.2393 9.75668 33.0029 10.3923 33.0004L19.8116 32.9746C20.3684 32.9734 20.9005 32.7484 21.2885 32.35L31.8004 21.5646C32.3141 21.037 32.3978 20.2279 32.0024 19.6069L25.0577 8.69C24.7116 8.14526 24.1105 7.81571 23.4638 7.81571ZM16.2543 8.81419V15.4335C16.2543 16.1627 15.6618 16.7541 14.9313 16.7541H8.58527C8.36971 16.7541 8.25885 16.4947 8.41036 16.3397L15.881 8.66294C16.0178 8.52399 16.2543 8.61991 16.2543 8.81419ZM16.2555 24.6941V18.0748C16.2555 17.3456 16.848 16.7541 17.5784 16.7541H23.9233C24.1388 16.7541 24.2497 17.0136 24.0982 17.1685L16.6275 24.8453C16.492 24.9855 16.2555 24.8896 16.2555 24.6941Z" fill="#060607"/>
<path d="M52.9041 16.4651V16.4134C54.328 15.7027 55.1422 14.3611 55.1422 12.6261C55.1422 10.0216 53.43 8.15625 50.1671 8.15625H41.9229V25.3506H50.8507C54.1937 25.3506 55.9342 23.3783 55.9342 20.6964C55.9342 18.649 54.7998 17.0713 52.9041 16.4651ZM45.2942 11.2857H49.7175C51.272 11.2857 51.7992 12.101 51.7992 13.2052C51.7992 14.2849 51.1414 15.1248 49.7458 15.1248H45.2942V11.2857ZM50.2718 22.2507H45.2942V18.1227H50.2976C51.6932 18.1227 52.4816 19.0412 52.4816 20.1983C52.4828 21.3296 51.8497 22.2507 50.2718 22.2507Z" fill="#060607"/>
<path d="M68.4424 8.1582L64.1251 15.0984L59.8595 8.1582H55.8809L62.4647 18.0951V25.3526H65.836V18.0176L72.341 8.1582H68.4424Z" fill="#060607"/>
<path d="M102.203 8.1582V11.2852H81.9011V25.3526H78.5285V11.2852H73.3945V8.1582H102.203Z" fill="#060607"/>
<path d="M102.203 22.2502V25.3526H89.5107V15.123H102.203V18.1222H92.8821V22.2502H102.203Z" fill="#060607"/>
<path d="M104.127 8.1582V11.2852H109.265V25.3526H112.634V11.2852H117.771V8.1582H104.127Z" fill="#060607"/>
<path d="M127.538 7.81641C122.167 7.81641 118.374 11.6001 118.374 16.7548C118.374 21.9071 122.168 25.6933 127.538 25.6933C132.913 25.6933 136.705 21.9059 136.705 16.7548C136.705 11.6013 132.913 7.81641 127.538 7.81641ZM127.538 22.592C124.115 22.592 121.797 20.1216 121.797 16.7548C121.797 13.388 124.115 10.9434 127.538 10.9434C130.964 10.9434 133.28 13.388 133.28 16.7548C133.28 20.1216 130.964 22.592 127.538 22.592Z" fill="#060607"/>
<path d="M157.405 8.1582V19.2264C157.405 21.5923 156.14 22.5674 154.481 22.5674C152.823 22.5674 151.559 21.5665 151.559 19.2264V8.1582H148.188V19.2264C148.188 21.5665 146.922 22.5674 145.266 22.5674C143.605 22.5674 142.342 21.5923 142.342 19.2264V8.1582H138.973V19.2264C138.973 23.6446 141.579 25.6944 144.976 25.6944C147.164 25.6944 148.875 24.7734 149.875 23.0642C150.878 24.7734 152.589 25.6944 154.774 25.6944C158.171 25.6944 160.78 23.6446 160.78 19.2264V8.1582H157.405Z" fill="#060607"/>
<path d="M170.835 7.81641C166.121 7.81641 163.514 10.577 163.514 14.9927V25.3526H166.885V14.9927C166.885 12.4424 168.201 10.9447 170.835 10.9447C173.47 10.9447 174.786 12.4424 174.786 14.9927V25.3526H178.157V14.9927C178.157 10.577 175.548 7.81641 170.835 7.81641Z" fill="#060607"/>
</svg>
